<svg width="566" height="641" xmlns="http://www.w3.org/2000/svg" xmlns:xlink="http://www.w3.org/1999/xlink" overflow="hidden"><defs><clipPath id="clip0"><rect x="318" y="98" width="566" height="641"/></clipPath></defs><g clip-path="url(#clip0)" transform="translate(-318 -98)"><path d="M506.395 259.343 591.877 259.343C592.671 259.343 593.377 259.564 593.994 260.005 594.612 260.446 595.141 261.218 595.582 262.32 596.023 263.423 596.354 264.835 596.574 266.555 596.795 268.275 596.905 270.458 596.905 273.105 596.905 275.575 596.795 277.67 596.574 279.39 596.354 281.11 596.023 282.5 595.582 283.558 595.141 284.617 594.612 285.389 593.994 285.874 593.377 286.359 592.671 286.602 591.877 286.602L530.743 286.602 530.743 328.416 582.482 328.416C583.276 328.416 584.004 328.659 584.665 329.144 585.327 329.629 585.878 330.379 586.319 331.394 586.76 332.408 587.091 333.775 587.312 335.496 587.532 337.216 587.642 339.311 587.642 341.781 587.642 344.339 587.532 346.457 587.312 348.133 587.091 349.809 586.76 351.154 586.319 352.169 585.878 353.183 585.327 353.911 584.665 354.352 584.004 354.793 583.276 355.013 582.482 355.013L530.743 355.013 530.743 403.312 592.406 403.312C593.2 403.312 593.928 403.554 594.589 404.04 595.251 404.525 595.802 405.297 596.244 406.355 596.685 407.414 597.015 408.803 597.236 410.523 597.456 412.244 597.567 414.383 597.567 416.941 597.567 419.499 597.456 421.639 597.236 423.359 597.015 425.079 596.685 426.469 596.244 427.527 595.802 428.586 595.251 429.358 594.589 429.843 593.928 430.328 593.2 430.571 592.406 430.571L506.395 430.571C503.484 430.571 501.036 429.711 499.051 427.99 497.067 426.27 496.074 423.469 496.074 419.588L496.074 270.326C496.074 266.444 497.067 263.644 499.051 261.923 501.036 260.203 503.484 259.343 506.395 259.343Z" stroke="#4472C4" stroke-width="2" stroke-linejoin="round" stroke-miterlimit="10" fill="#FFFFFF" fill-rule="evenodd"/><text fill="#000000" fill-opacity="0" font-family="Arial,Arial_MSFontService,sans-serif" font-size="171.228" x="496.074" y="409.167">E</text><path d="M651.61 337.91C658.911 337.91 665.56 338.41 671.557 339.41 677.554 340.409 682.791 341.626 687.267 343.06 691.743 344.494 695.458 346.037 698.413 347.688 701.368 349.34 703.433 350.774 704.606 351.991 705.779 353.207 706.627 354.924 707.148 357.14 707.67 359.357 707.93 362.638 707.93 366.983 707.93 369.504 707.822 371.677 707.604 373.502 707.387 375.327 707.083 376.783 706.692 377.869 706.301 378.956 705.823 379.716 705.258 380.151 704.693 380.585 704.019 380.803 703.237 380.803 702.107 380.803 700.282 380.02 697.761 378.456 695.241 376.891 691.895 375.197 687.723 373.371 683.551 371.546 678.575 369.851 672.795 368.287 667.016 366.723 660.302 365.94 652.653 365.94 644.483 365.94 637.095 367.353 630.49 370.177 623.885 373.002 618.235 377 613.542 382.171 608.848 387.343 605.241 393.557 602.721 400.815 600.2 408.072 598.94 416.09 598.94 424.868 598.94 434.515 600.222 443.011 602.786 450.356 605.35 457.7 608.935 463.849 613.542 468.803 618.148 473.757 623.689 477.494 630.164 480.015 636.639 482.535 643.788 483.796 651.61 483.796 655.434 483.796 659.215 483.361 662.952 482.492 666.69 481.623 670.166 480.319 673.382 478.581L673.382 439.47 641.441 439.47C639.877 439.47 638.66 438.492 637.791 436.536 636.922 434.581 636.487 431.256 636.487 426.563 636.487 424.129 636.596 422.087 636.813 420.435 637.03 418.784 637.356 417.459 637.791 416.459 638.225 415.46 638.747 414.721 639.355 414.243 639.964 413.765 640.659 413.526 641.441 413.526L698.413 413.526C699.804 413.526 701.042 413.765 702.129 414.243 703.215 414.721 704.171 415.438 704.997 416.394 705.823 417.35 706.453 418.502 706.887 419.849 707.322 421.196 707.539 422.739 707.539 424.477L707.539 491.618C707.539 494.225 707.083 496.507 706.17 498.462 705.258 500.418 703.389 501.961 700.564 503.091 697.74 504.221 694.241 505.394 690.07 506.611 685.898 507.827 681.574 508.87 677.098 509.74 672.622 510.609 668.102 511.261 663.539 511.695 658.976 512.13 654.391 512.347 649.785 512.347 636.313 512.347 624.254 510.413 613.607 506.546 602.96 502.678 593.943 497.072 586.555 489.728 579.167 482.383 573.518 473.431 569.607 462.871 565.696 452.311 563.74 440.339 563.74 426.954 563.74 413.135 565.826 400.728 569.998 389.733 574.17 378.738 580.08 369.395 587.728 361.703 595.377 354.011 604.611 348.123 615.432 344.038 626.253 339.953 638.312 337.91 651.61 337.91Z" stroke="#4472C4" stroke-width="2" stroke-linejoin="round" stroke-miterlimit="10" fill="#FFFFFF" fill-rule="evenodd"/><text fill="#000000" fill-opacity="0" font-family="Arial,Arial_MSFontService,sans-serif" font-size="174.436" x="563.74" y="490.542">G</text><path d="M442.5 388 601 229.5 759.5 388 601 546.5Z" stroke="#4472C4" stroke-width="1.33333" stroke-miterlimit="8" fill="#4472C4" fill-rule="evenodd"/><text fill="#FFFFFF" font-family="Calibri,Calibri_MSFontService,sans-serif" font-weight="700" font-size="265" transform="translate(477.813 427)">E<tspan font-size="267" x="75.3819" y="81">G</tspan></text></g></svg>